<svg width="54" height="52" viewBox="0 0 54 52" fill="none" xmlns="http://www.w3.org/2000/svg">
<path d="M21.5862 10.3303C23.8805 4.61077 25.0276 1.75098 27.0002 1.75098C28.9729 1.75098 30.12 4.61077 32.4142 10.3304L32.5211 10.5967C33.8172 13.828 34.4653 15.4436 35.7861 16.4256C37.1069 17.4076 38.8408 17.5629 42.3084 17.8735L42.9353 17.9296C48.6106 18.4379 51.4483 18.692 52.0554 20.4974C52.6626 22.3027 50.5553 24.22 46.3406 28.0545L44.9339 29.3343C42.8004 31.2754 41.7336 32.2459 41.2364 33.5179C41.1436 33.7552 41.0665 33.9983 41.0055 34.2457C40.6787 35.5718 40.9911 36.9798 41.6159 39.7957L41.8103 40.6722C42.9586 45.8474 43.5327 48.435 42.5303 49.5511C42.1557 49.9681 41.6689 50.2684 41.1281 50.416C39.6808 50.8109 37.6261 49.1366 33.5167 45.788C30.8182 43.5891 29.469 42.4897 27.92 42.2424C27.3107 42.1451 26.6898 42.1451 26.0805 42.2424C24.5314 42.4897 23.1822 43.5891 20.4838 45.788C16.3744 49.1366 14.3196 50.8109 12.8724 50.416C12.3316 50.2684 11.8448 49.9681 11.4702 49.5511C10.4678 48.435 11.0419 45.8474 12.1901 40.6722L12.3846 39.7957C13.0094 36.9798 13.3218 35.5718 12.9949 34.2457C12.934 33.9983 12.8569 33.7552 12.7641 33.5179C12.2669 32.2459 11.2001 31.2754 9.06655 29.3343L7.65989 28.0545C3.44518 24.22 1.33782 22.3027 1.94501 20.4974C2.5522 18.692 5.38984 18.4379 11.0651 17.9296L11.692 17.8735C15.1597 17.5629 16.8935 17.4076 18.2144 16.4256C19.5352 15.4436 20.1832 13.828 21.4794 10.5967L21.5862 10.3303Z" stroke="#CCD2E3" stroke-width="2"/>
</svg>
